<svg id="Слой_1" data-name="Слой 1" xmlns="http://www.w3.org/2000/svg" viewBox="0 0 214.97 28.66">
    <path id="NEWARTDOM" class="cls-1"
          d="M9.44,28.33H14V.33H10V17.09L5.52.32H0v28H4V8Zm20.08-24h7.6v-4h-12v28h12v-4h-7.6v-8.2h6v-4h-6V4.33Zm29.68,24H65l3.12-28H64.32L62,22.57,59.84.32H55.6L53.48,22.41,51.12.32H46.84l3.12,28h6L57.6,13.4Zm89.15,0h7c4.4,0,6.56-2.44,6.56-6.92V7.24c0-4.48-2.16-6.92-6.56-6.92h-7v28Zm6.89-24c1.4,0,2.24.72,2.24,2.72V21.61c0,2-.84,2.72-2.24,2.72h-2.48v-20Zm21.47,2.44c0-2,.88-2.76,2.29-2.76s2.28.76,2.28,2.76V21.89c0,2-.88,2.76-2.28,2.76s-2.29-.76-2.29-2.76V6.76Zm-4.4,14.85c0,4.48,2.36,7,6.69,7s6.68-2.56,6.68-7V7c0-4.48-2.36-7-6.68-7s-6.69,2.56-6.69,7V21.61ZM202.6.33h-6.13v28h3.84V8.53l3.29,19.8h4.16l3-20.08V28.33H215V.33h-6.12l-3,19.88Z"/>
    <path class="cls-1" d="M87.52.33H81.08l-4.48,28h4l.76-5.08h5.4l.76,5.08H92ZM82,19.45,84.08,5.29,86.2,19.45Z" fill="transparent"/>
    <polygon class="cls-2" points="115.72 28.32 115.72 28.33 115.72 28.32 115.72 28.32" fill="transparent"/>
    <path class="cls-2"
          d="M115.24,24.93V20.61c0-2.92-.72-5-2.92-6,2-.92,2.88-2.8,2.88-5.69V6.76c0-4.32-2-6.44-6.52-6.44H102v28h4.4V16.92H108c2,0,2.88,1,2.88,3.56v4.4a8.58,8.58,0,0,0,.4,3.45h4.47A8.38,8.38,0,0,1,115.24,24.93ZM110.8,10c0,2.24-1,3-2.64,3h-1.72V4.33h2.12c1.56,0,2.24.88,2.24,2.88Z" fill="transparent"/>
    <polygon class="cls-1"
             points="124.83 4.33 129.43 4.33 129.43 28.33 133.83 28.33 133.83 4.33 138.43 4.33 138.43 0.33 124.84 0.33 124.84 4.33 124.83 4.33" fill="transparent"/>
</svg>
