<svg viewBox="0 0 512 512" xmlns="http://www.w3.org/2000/svg"><path d="m437 75a256 256 0 0 0 -402.71 309l-34.29 128 128-34.29a256 256 0 0 0 309-402.71zm-181 407a225.45 225.45 0 0 1 -118-33.2l-5.5-3.37-90.07 24.15 24.14-90.12-3.37-5.46a225.52 225.52 0 0 1 -33.2-118c0-124.62 101.38-226 226-226s226 101.38 226 226-101.38 226-226 226z"/><path d="m241 353.5h30v30h-30z"/><path d="m256 128.5a75.09 75.09 0 0 0 -75 75h30a45 45 0 1 1 78.53 30l-48.53 54.27v35.73h30v-24.27l40.89-45.73a75 75 0 0 0 -55.89-125z"/></svg>