<svg viewBox="0 0 512 512" xmlns="http://www.w3.org/2000/svg"><path d="m436.88 75a10.9 10.9 0 0 0 -15.35 0l-235.77 235.83a16.06 16.06 0 0 1 -23.2.06l-34.85-35.39a10.89 10.89 0 0 0 -15.52 15.29l34.91 35.45a37.83 37.83 0 0 0 54.06 0l227.94-227.94c39.5 42.79 61.12 98.34 61.12 157.62a232.06 232.06 0 0 1 -71.52 168.3c-46.32 44.72-107.39 68-172 65.85-121.35-4.69-220.08-103.42-224.77-224.73-2.26-64.62 21.13-125.72 65.85-172a232.05 232.05 0 0 1 168.3-71.53 10.89 10.89 0 1 0 0-21.78 253.65 253.65 0 0 0 -184 78.18c-48.84 50.57-74.39 117.31-71.92 187.93 5.13 132.65 113.06 240.57 245.74 245.7 3.13.1 6.24.16 9.35.16a256.46 256.46 0 0 0 256.75-256.08c0-68.81-26.67-133.06-75.12-180.92z"/></svg>