<svg viewBox="0 0 512 512" xmlns="http://www.w3.org/2000/svg"><path d="m512 97.25a218.64 218.64 0 0 1 -60.48 16.57 104.36 104.36 0 0 0 46.18-58 210 210 0 0 1 -66.56 25.41 105 105 0 0 0 -181.57 71.77 108 108 0 0 0 2.43 23.93c-87.26-4.26-164.48-46.08-216.35-109.79a105 105 0 0 0 32.25 140.28 103.69 103.69 0 0 1 -47.42-12.92v1.15a105.43 105.43 0 0 0 84.1 103.13 104.65 104.65 0 0 1 -27.52 3.46 92.77 92.77 0 0 1 -19.88-1.79c13.6 41.57 52.2 72.13 98.08 73.12a210.93 210.93 0 0 1 -130.14 44.77 197.72 197.72 0 0 1 -25.12-1.44 295.54 295.54 0 0 0 161 47.1c193.16 0 298.76-160 298.76-298.69 0-4.64-.16-9.12-.39-13.57a209.29 209.29 0 0 0 52.63-54.49z"/></svg>