<svg id="sprites" width="0" height="0" style="position:absolute"><symbol viewBox="0 0 1515 608" id="icon-arrow" xmlns="http://www.w3.org/2000/svg"><path d="M390.5.7L-.5 1 303 304.5C469.9 471.4 607 608 607.5 608c1.3 0 88.5-87.2 88.5-88.5 0-.6-88.1-89.1-195.7-196.7L304.5 127H1515V0l-366.7.2C946.5.4 605.6.6 390.5.7z"/></symbol><symbol viewBox="0 0 612 612" id="icon-close" xmlns="http://www.w3.org/2000/svg"><path d="M612 36L576.52.6 306 270.61 35.48.6 0 36l270.52 270.01L0 576l35.48 35.4L306 341.41 576.52 611.4 612 576 341.46 306.01 612 36z"/></symbol><symbol viewBox="0 0 512 512" id="icon-facebook" xmlns="http://www.w3.org/2000/svg"><path d="M288 176v-64a32 32 0 0 1 32-32h32V0h-64a96 96 0 0 0-96 96v80h-64v80h64v256h96V256h64l32-80z"/></symbol><symbol viewBox="0 0 511 511" id="icon-instagram" xmlns="http://www.w3.org/2000/svg"><path d="M510.5 150.24c-1.2-27.16-5.59-45.82-11.88-62a130.86 130.86 0 0 0-74.77-74.76C407.58 7.19 389 2.8 361.86 1.6 334.51.3 325.83 0 256.45 0s-78.06.3-105.32 1.5-45.81 5.59-62 11.87a124.84 124.84 0 0 0-45.31 29.55 125.81 125.81 0 0 0-29.45 45.23C8.08 104.42 3.69 123 2.5 150.13 1.2 177.49.9 186.17.9 255.55s.3 78.06 1.49 105.31 5.6 45.82 11.89 62a125.86 125.86 0 0 0 29.54 45.32A125.75 125.75 0 0 0 89 497.62c16.28 6.29 34.84 10.68 62 11.88s36 1.5 105.35 1.5 78.06-.3 105.31-1.5 45.82-5.59 62-11.88a130.68 130.68 0 0 0 74.77-74.76c6.29-16.28 10.68-34.84 11.88-62s1.5-35.93 1.5-105.31-.11-78.06-1.31-105.31zm-46 208.63c-1.1 24.95-5.29 38.43-8.78 47.41a84.78 84.78 0 0 1-48.52 48.52c-9 3.49-22.56 7.69-47.41 8.78-27 1.2-35 1.5-103.22 1.5s-76.37-.3-103.22-1.5c-25-1.09-38.43-5.29-47.42-8.78a78.44 78.44 0 0 1-29.34-19.07 79.32 79.32 0 0 1-19.09-29.34c-3.5-9-7.69-22.57-8.78-47.42-1.21-27-1.5-35-1.5-103.22s.29-76.37 1.5-103.22c1.09-25 5.28-38.43 8.78-47.41a77.56 77.56 0 0 1 19.17-29.36A79.34 79.34 0 0 1 106 56.7c9-3.49 22.57-7.68 47.42-8.78 26.95-1.2 35-1.5 103.22-1.5s76.36.3 103.22 1.5c24.95 1.1 38.43 5.29 47.41 8.78a78.58 78.58 0 0 1 29.35 19.06 79.44 79.44 0 0 1 19.07 29.36c3.49 9 7.68 22.55 8.78 47.41 1.2 26.95 1.5 35 1.5 103.22s-.29 76.17-1.49 103.12z"/><path d="M256.45 124.28a131.27 131.27 0 1 0 131.27 131.27 131.31 131.31 0 0 0-131.27-131.27zm0 216.42a85.15 85.15 0 1 1 85.15-85.15 85.16 85.16 0 0 1-85.15 85.15zm167.11-221.61a30.65 30.65 0 1 1-30.65-30.64 30.66 30.66 0 0 1 30.65 30.64z"/></symbol><symbol viewBox="0 0 300 450" id="icon-login" xmlns="http://www.w3.org/2000/svg"><path d="M123 12.5V25h152v400H123v25h177V0H123z"/><path d="M115.3 138.1l-9.1 9.2 31.4 32.1 31.5 32.1-84.6.3L0 212v26l84.4.2 84.4.3-31.1 31.8-31 31.8 9.1 9.2 9.2 9.2 18.7-19c10.3-10.5 31.5-31.9 47-47.6s28.3-28.7 28.3-29-21.3-21.9-47.3-48.2l-47.2-47.8z"/></symbol><symbol viewBox="0 0 214.97 28.66" id="icon-logo" xmlns="http://www.w3.org/2000/svg"><path class="fcls-1" d="M9.44 28.33H14v-28h-4v16.76L5.52.32H0v28h4V8zm20.08-24h7.6v-4h-12v28h12v-4h-7.6v-8.2h6v-4h-6v-7.8zm29.68 24H65l3.12-28h-3.8L62 22.57 59.84.32H55.6l-2.12 22.09L51.12.32h-4.28l3.12 28h6L57.6 13.4zm89.15 0h7c4.4 0 6.56-2.44 6.56-6.92V7.24c0-4.48-2.16-6.92-6.56-6.92h-7v28zm6.89-24c1.4 0 2.24.72 2.24 2.72v14.56c0 2-.84 2.72-2.24 2.72h-2.48v-20zm21.47 2.44c0-2 .88-2.76 2.29-2.76s2.28.76 2.28 2.76v15.12c0 2-.88 2.76-2.28 2.76s-2.29-.76-2.29-2.76V6.76zm-4.4 14.85c0 4.48 2.36 7 6.69 7s6.68-2.56 6.68-7V7c0-4.48-2.36-7-6.68-7s-6.69 2.56-6.69 7v14.61zM202.6.33h-6.13v28h3.84V8.53l3.29 19.8h4.16l3-20.08v20.08H215v-28h-6.12l-3 19.88z"/><path class="fcls-1" d="M87.52.33h-6.44l-4.48 28h4l.76-5.08h5.4l.76 5.08H92zM82 19.45l2.08-14.16 2.12 14.16z" fill="transparent"/><path class="fcls-2" fill="transparent" d="M115.72 28.32v.01-.01zM115.24 24.93v-4.32c0-2.92-.72-5-2.92-6 2-.92 2.88-2.8 2.88-5.69V6.76c0-4.32-2-6.44-6.52-6.44H102v28h4.4v-11.4h1.6c2 0 2.88 1 2.88 3.56v4.4a8.58 8.58 0 0 0 .4 3.45h4.47a8.38 8.38 0 0 1-.51-3.4zM110.8 10c0 2.24-1 3-2.64 3h-1.72V4.33h2.12c1.56 0 2.24.88 2.24 2.88z"/><path class="fcls-1" fill="transparent" d="M124.83 4.33h4.6v24h4.4v-24h4.6v-4h-13.59v4h-.01z"/></symbol><symbol viewBox="0 0 612 612" id="icon-menu" xmlns="http://www.w3.org/2000/svg"><path d="M0 95.62v38.26h612V95.62zm0 229.5h612v-38.24H0zm0 191.26h612v-38.26H0z"/></symbol><symbol viewBox="0 0 512 512" id="icon-question" xmlns="http://www.w3.org/2000/svg"><path d="M437 75A256 256 0 0 0 34.29 384L0 512l128-34.29A256 256 0 0 0 437 75zM256 482a225.45 225.45 0 0 1-118-33.2l-5.5-3.37-90.07 24.15 24.14-90.12L63.2 374A225.52 225.52 0 0 1 30 256C30 131.38 131.38 30 256 30s226 101.38 226 226-101.38 226-226 226z"/><path d="M241 353.5h30v30h-30zM256 128.5a75.09 75.09 0 0 0-75 75h30a45 45 0 1 1 78.53 30L241 287.77v35.73h30v-24.27l40.89-45.73a75 75 0 0 0-55.89-125z"/></symbol><symbol viewBox="0 0 612.01 612.01" id="icon-search" xmlns="http://www.w3.org/2000/svg"><path d="M606.21 578.71l-158-155.48c41.38-45 66.8-104.41 66.8-169.84C515 113.44 399.7 0 257.49 0S0 113.44 0 253.39s115.27 253.4 257.48 253.4a259 259 0 0 0 162.08-56.59l158.62 156.1a20 20 0 0 0 28 0 19.29 19.29 0 0 0 .03-27.59zM257.49 467.8c-120.32 0-217.87-96-217.87-214.41S137.17 39 257.49 39s217.87 96 217.87 214.4-97.54 214.4-217.87 214.4z"/></symbol><symbol viewBox="0 0 512 512" id="icon-success" xmlns="http://www.w3.org/2000/svg"><path d="M436.88 75a10.9 10.9 0 0 0-15.35 0L185.76 310.83a16.06 16.06 0 0 1-23.2.06l-34.85-35.39a10.89 10.89 0 0 0-15.52 15.29l34.91 35.45a37.83 37.83 0 0 0 54.06 0L429.1 98.3c39.5 42.79 61.12 98.34 61.12 157.62a232.06 232.06 0 0 1-71.52 168.3c-46.32 44.72-107.39 68-172 65.85-121.35-4.69-220.08-103.42-224.77-224.73-2.26-64.62 21.13-125.72 65.85-172a232.05 232.05 0 0 1 168.3-71.53 10.89 10.89 0 1 0 0-21.78 253.65 253.65 0 0 0-184 78.18C23.24 128.78-2.31 195.52.16 266.14c5.13 132.65 113.06 240.57 245.74 245.7 3.13.1 6.24.16 9.35.16A256.46 256.46 0 0 0 512 255.92c0-68.81-26.67-133.06-75.12-180.92z"/></symbol><symbol viewBox="0 0 512 512" id="icon-twitter" xmlns="http://www.w3.org/2000/svg"><path d="M512 97.25a218.64 218.64 0 0 1-60.48 16.57 104.36 104.36 0 0 0 46.18-58 210 210 0 0 1-66.56 25.41A105 105 0 0 0 249.57 153a108 108 0 0 0 2.43 23.93c-87.26-4.26-164.48-46.08-216.35-109.79A105 105 0 0 0 67.9 207.42a103.69 103.69 0 0 1-47.42-12.92v1.15a105.43 105.43 0 0 0 84.1 103.13 104.65 104.65 0 0 1-27.52 3.46 92.77 92.77 0 0 1-19.88-1.79c13.6 41.57 52.2 72.13 98.08 73.12a210.93 210.93 0 0 1-130.14 44.77A197.72 197.72 0 0 1 0 416.9 295.54 295.54 0 0 0 161 464c193.16 0 298.76-160 298.76-298.69 0-4.64-.16-9.12-.39-13.57A209.29 209.29 0 0 0 512 97.25z"/></symbol><symbol viewBox="0 0 682 682" id="icon-youtube" xmlns="http://www.w3.org/2000/svg"><path d="M647.18 181.19a80.11 80.11 0 0 0-56.35-56.36c-50-13.69-250.17-13.69-250.17-13.69s-200.13 0-250.16 13.17c-26.86 7.37-49 29.49-56.35 56.88C21 231.22 21 335 21 335s0 104.28 13.17 153.79a80.08 80.08 0 0 0 56.33 56.32c50.56 13.7 250.17 13.7 250.17 13.7s200.13 0 250.16-13.17a80.14 80.14 0 0 0 56.36-56.36c13.16-50 13.16-153.78 13.16-153.78s.53-104.28-13.17-154.31zM276.94 430.83V239.12L443.36 335z"/></symbol></svg>